<mxfile host="Electron" modified="2024-05-13T18:35:12.815Z" agent="Mozilla/5.0 (Windows NT 10.0; Win64; x64) AppleWebKit/537.36 (KHTML, like Gecko) draw.io/22.1.11 Chrome/114.0.5735.289 Electron/25.9.8 Safari/537.36" etag="EDn9ti-MVtKC7bgL_Pmz" version="22.1.11" type="device">
  <diagram name="Sayfa -1" id="y2uaB7nny79N9twOkThO">
    <mxGraphModel dx="1219" dy="1882" grid="1" gridSize="10" guides="1" tooltips="1" connect="1" arrows="1" fold="1" page="1" pageScale="1" pageWidth="827" pageHeight="1169" math="0" shadow="0">
      <root>
        <mxCell id="0" />
        <mxCell id="1" parent="0" />
        <mxCell id="STe9ljsXlWDjaHvHGVK4-18" value="" style="swimlane;startSize=0;" parent="1" vertex="1">
          <mxGeometry x="250" y="30" width="490" height="520" as="geometry">
            <mxRectangle x="340" y="250" width="50" height="40" as="alternateBounds" />
          </mxGeometry>
        </mxCell>
        <mxCell id="STe9ljsXlWDjaHvHGVK4-20" value="Giriş Yap" style="ellipse;whiteSpace=wrap;html=1;" parent="STe9ljsXlWDjaHvHGVK4-18" vertex="1">
          <mxGeometry x="30" y="90" width="80" height="40" as="geometry" />
        </mxCell>
        <mxCell id="STe9ljsXlWDjaHvHGVK4-23" value="Giriş Yap" style="ellipse;whiteSpace=wrap;html=1;" parent="STe9ljsXlWDjaHvHGVK4-18" vertex="1">
          <mxGeometry x="300" y="90" width="80" height="40" as="geometry" />
        </mxCell>
        <mxCell id="STe9ljsXlWDjaHvHGVK4-27" value="Kayıt Ol" style="ellipse;whiteSpace=wrap;html=1;" parent="STe9ljsXlWDjaHvHGVK4-18" vertex="1">
          <mxGeometry x="30" width="80" height="40" as="geometry" />
        </mxCell>
        <mxCell id="STe9ljsXlWDjaHvHGVK4-26" value="Kayıt Ol" style="ellipse;whiteSpace=wrap;html=1;" parent="STe9ljsXlWDjaHvHGVK4-18" vertex="1">
          <mxGeometry x="300" width="80" height="40" as="geometry" />
        </mxCell>
        <mxCell id="STe9ljsXlWDjaHvHGVK4-29" value="&amp;lt;&amp;lt;extend&amp;gt;&amp;gt;" style="html=1;verticalAlign=bottom;endArrow=open;dashed=1;endSize=8;curved=0;rounded=0;" parent="STe9ljsXlWDjaHvHGVK4-18" source="STe9ljsXlWDjaHvHGVK4-27" target="STe9ljsXlWDjaHvHGVK4-20" edge="1">
          <mxGeometry relative="1" as="geometry">
            <mxPoint x="-30" y="440" as="sourcePoint" />
            <mxPoint x="-110" y="440" as="targetPoint" />
          </mxGeometry>
        </mxCell>
        <mxCell id="STe9ljsXlWDjaHvHGVK4-30" value="&amp;lt;&amp;lt;extend&amp;gt;&amp;gt;" style="html=1;verticalAlign=bottom;endArrow=open;dashed=1;endSize=8;curved=0;rounded=0;" parent="STe9ljsXlWDjaHvHGVK4-18" source="STe9ljsXlWDjaHvHGVK4-26" target="STe9ljsXlWDjaHvHGVK4-23" edge="1">
          <mxGeometry relative="1" as="geometry">
            <mxPoint x="-100" y="440" as="sourcePoint" />
            <mxPoint x="-180" y="440" as="targetPoint" />
          </mxGeometry>
        </mxCell>
        <mxCell id="STe9ljsXlWDjaHvHGVK4-34" value="E-mail ve password kontrol" style="ellipse;whiteSpace=wrap;html=1;" parent="STe9ljsXlWDjaHvHGVK4-18" vertex="1">
          <mxGeometry x="170" y="10" width="80" height="40" as="geometry" />
        </mxCell>
        <mxCell id="STe9ljsXlWDjaHvHGVK4-35" value="E-mail ve password kontrol" style="ellipse;whiteSpace=wrap;html=1;" parent="STe9ljsXlWDjaHvHGVK4-18" vertex="1">
          <mxGeometry x="250" y="160" width="80" height="40" as="geometry" />
        </mxCell>
        <mxCell id="STe9ljsXlWDjaHvHGVK4-39" value="&amp;lt;&amp;lt;include&amp;gt;&amp;gt;" style="html=1;verticalAlign=bottom;endArrow=open;dashed=1;endSize=8;curved=0;rounded=0;" parent="STe9ljsXlWDjaHvHGVK4-18" source="STe9ljsXlWDjaHvHGVK4-20" target="STe9ljsXlWDjaHvHGVK4-34" edge="1">
          <mxGeometry relative="1" as="geometry">
            <mxPoint x="-70" y="440" as="sourcePoint" />
            <mxPoint x="-150" y="440" as="targetPoint" />
          </mxGeometry>
        </mxCell>
        <mxCell id="STe9ljsXlWDjaHvHGVK4-38" value="&amp;lt;&amp;lt;include&amp;gt;&amp;gt;" style="html=1;verticalAlign=bottom;endArrow=open;dashed=1;endSize=8;curved=0;rounded=0;" parent="STe9ljsXlWDjaHvHGVK4-18" source="STe9ljsXlWDjaHvHGVK4-23" target="STe9ljsXlWDjaHvHGVK4-35" edge="1">
          <mxGeometry relative="1" as="geometry">
            <mxPoint x="-80" y="430" as="sourcePoint" />
            <mxPoint x="-160" y="430" as="targetPoint" />
          </mxGeometry>
        </mxCell>
        <mxCell id="STe9ljsXlWDjaHvHGVK4-42" value="Bilgileri Güncelle" style="ellipse;whiteSpace=wrap;html=1;" parent="STe9ljsXlWDjaHvHGVK4-18" vertex="1">
          <mxGeometry x="80" y="130" width="80" height="40" as="geometry" />
        </mxCell>
        <mxCell id="STe9ljsXlWDjaHvHGVK4-41" value="Diyet Listesi Görüntüle" style="ellipse;whiteSpace=wrap;html=1;" parent="STe9ljsXlWDjaHvHGVK4-18" vertex="1">
          <mxGeometry x="40" y="170" width="80" height="40" as="geometry" />
        </mxCell>
        <mxCell id="STe9ljsXlWDjaHvHGVK4-40" value="Besin Bilgileri Görüntüle" style="ellipse;whiteSpace=wrap;html=1;" parent="STe9ljsXlWDjaHvHGVK4-18" vertex="1">
          <mxGeometry x="20" y="260" width="80" height="40" as="geometry" />
        </mxCell>
        <mxCell id="STe9ljsXlWDjaHvHGVK4-46" value="Diyetisyenleri Görüntüle" style="ellipse;whiteSpace=wrap;html=1;" parent="STe9ljsXlWDjaHvHGVK4-18" vertex="1">
          <mxGeometry x="30" y="310" width="80" height="40" as="geometry" />
        </mxCell>
        <mxCell id="STe9ljsXlWDjaHvHGVK4-48" value="Mesajlaşma" style="ellipse;whiteSpace=wrap;html=1;" parent="STe9ljsXlWDjaHvHGVK4-18" vertex="1">
          <mxGeometry x="190" y="210" width="80" height="40" as="geometry" />
        </mxCell>
        <mxCell id="STe9ljsXlWDjaHvHGVK4-52" value="BMI hesapla" style="ellipse;whiteSpace=wrap;html=1;" parent="STe9ljsXlWDjaHvHGVK4-18" vertex="1">
          <mxGeometry x="20" y="360" width="80" height="40" as="geometry" />
        </mxCell>
        <mxCell id="STe9ljsXlWDjaHvHGVK4-54" value="Bilgi Yarışması Oyna" style="ellipse;whiteSpace=wrap;html=1;" parent="STe9ljsXlWDjaHvHGVK4-18" vertex="1">
          <mxGeometry x="10" y="410" width="80" height="40" as="geometry" />
        </mxCell>
        <mxCell id="STe9ljsXlWDjaHvHGVK4-58" value="Mesajlaşma" style="ellipse;whiteSpace=wrap;html=1;" parent="STe9ljsXlWDjaHvHGVK4-18" vertex="1">
          <mxGeometry x="124" y="250" width="80" height="40" as="geometry" />
        </mxCell>
        <mxCell id="STe9ljsXlWDjaHvHGVK4-60" value="Hastaları Görüntüle" style="ellipse;whiteSpace=wrap;html=1;" parent="STe9ljsXlWDjaHvHGVK4-18" vertex="1">
          <mxGeometry x="380" y="230" width="80" height="40" as="geometry" />
        </mxCell>
        <mxCell id="STe9ljsXlWDjaHvHGVK4-62" value="Besin Bilgileri Görüntüle" style="ellipse;whiteSpace=wrap;html=1;" parent="STe9ljsXlWDjaHvHGVK4-18" vertex="1">
          <mxGeometry x="360" y="280" width="80" height="40" as="geometry" />
        </mxCell>
        <mxCell id="STe9ljsXlWDjaHvHGVK4-64" value="Diyet Listesi Oluşturma ve Gönderme" style="ellipse;whiteSpace=wrap;html=1;" parent="STe9ljsXlWDjaHvHGVK4-18" vertex="1">
          <mxGeometry x="380" y="340" width="80" height="40" as="geometry" />
        </mxCell>
        <mxCell id="STe9ljsXlWDjaHvHGVK4-66" value="BMI Hesapla" style="ellipse;whiteSpace=wrap;html=1;" parent="STe9ljsXlWDjaHvHGVK4-18" vertex="1">
          <mxGeometry x="400" y="90" width="80" height="40" as="geometry" />
        </mxCell>
        <mxCell id="STe9ljsXlWDjaHvHGVK4-68" value="Diyet Listeleri Görüntüleme" style="ellipse;whiteSpace=wrap;html=1;" parent="STe9ljsXlWDjaHvHGVK4-18" vertex="1">
          <mxGeometry x="410" y="30" width="80" height="40" as="geometry" />
        </mxCell>
        <mxCell id="STe9ljsXlWDjaHvHGVK4-19" value="&lt;font style=&quot;font-size: 18px;&quot;&gt;Diyet Sistemi&lt;/font&gt;" style="text;html=1;align=center;verticalAlign=middle;resizable=0;points=[];autosize=1;strokeColor=none;fillColor=none;" parent="1" vertex="1">
          <mxGeometry x="400" width="130" height="40" as="geometry" />
        </mxCell>
        <mxCell id="STe9ljsXlWDjaHvHGVK4-21" value="Kullanıcı" style="shape=umlActor;verticalLabelPosition=bottom;verticalAlign=top;html=1;outlineConnect=0;" parent="1" vertex="1">
          <mxGeometry x="150" y="210" width="30" height="60" as="geometry" />
        </mxCell>
        <mxCell id="STe9ljsXlWDjaHvHGVK4-22" value="Diyetisyen" style="shape=umlActor;verticalLabelPosition=bottom;verticalAlign=top;html=1;outlineConnect=0;" parent="1" vertex="1">
          <mxGeometry x="790" y="200" width="30" height="60" as="geometry" />
        </mxCell>
        <mxCell id="STe9ljsXlWDjaHvHGVK4-24" value="" style="endArrow=none;html=1;rounded=0;" parent="1" source="STe9ljsXlWDjaHvHGVK4-20" target="STe9ljsXlWDjaHvHGVK4-21" edge="1">
          <mxGeometry width="50" height="50" relative="1" as="geometry">
            <mxPoint x="400" y="330" as="sourcePoint" />
            <mxPoint x="450" y="280" as="targetPoint" />
          </mxGeometry>
        </mxCell>
        <mxCell id="STe9ljsXlWDjaHvHGVK4-25" value="" style="endArrow=none;html=1;rounded=0;" parent="1" source="STe9ljsXlWDjaHvHGVK4-23" target="STe9ljsXlWDjaHvHGVK4-22" edge="1">
          <mxGeometry width="50" height="50" relative="1" as="geometry">
            <mxPoint x="400" y="330" as="sourcePoint" />
            <mxPoint x="450" y="280" as="targetPoint" />
          </mxGeometry>
        </mxCell>
        <mxCell id="STe9ljsXlWDjaHvHGVK4-31" value="&lt;font style=&quot;font-size: 14px;&quot;&gt;Masaüstü&lt;/font&gt;" style="text;html=1;align=center;verticalAlign=middle;resizable=0;points=[];autosize=1;strokeColor=none;fillColor=none;" parent="1" vertex="1">
          <mxGeometry x="540" y="-2" width="80" height="30" as="geometry" />
        </mxCell>
        <mxCell id="STe9ljsXlWDjaHvHGVK4-32" value="&lt;font style=&quot;font-size: 14px;&quot;&gt;Mobil&lt;/font&gt;" style="text;html=1;align=center;verticalAlign=middle;resizable=0;points=[];autosize=1;strokeColor=none;fillColor=none;" parent="1" vertex="1">
          <mxGeometry x="285" width="60" height="30" as="geometry" />
        </mxCell>
        <mxCell id="STe9ljsXlWDjaHvHGVK4-43" value="" style="endArrow=none;html=1;rounded=0;" parent="1" source="STe9ljsXlWDjaHvHGVK4-42" target="STe9ljsXlWDjaHvHGVK4-21" edge="1">
          <mxGeometry width="50" height="50" relative="1" as="geometry">
            <mxPoint x="400" y="340" as="sourcePoint" />
            <mxPoint x="450" y="290" as="targetPoint" />
          </mxGeometry>
        </mxCell>
        <mxCell id="STe9ljsXlWDjaHvHGVK4-44" value="" style="endArrow=none;html=1;rounded=0;" parent="1" source="STe9ljsXlWDjaHvHGVK4-41" target="STe9ljsXlWDjaHvHGVK4-21" edge="1">
          <mxGeometry width="50" height="50" relative="1" as="geometry">
            <mxPoint x="400" y="340" as="sourcePoint" />
            <mxPoint x="450" y="290" as="targetPoint" />
          </mxGeometry>
        </mxCell>
        <mxCell id="STe9ljsXlWDjaHvHGVK4-45" value="" style="endArrow=none;html=1;rounded=0;" parent="1" source="STe9ljsXlWDjaHvHGVK4-40" target="STe9ljsXlWDjaHvHGVK4-21" edge="1">
          <mxGeometry width="50" height="50" relative="1" as="geometry">
            <mxPoint x="400" y="340" as="sourcePoint" />
            <mxPoint x="450" y="290" as="targetPoint" />
          </mxGeometry>
        </mxCell>
        <mxCell id="STe9ljsXlWDjaHvHGVK4-47" value="" style="endArrow=none;html=1;rounded=0;" parent="1" source="STe9ljsXlWDjaHvHGVK4-46" target="STe9ljsXlWDjaHvHGVK4-21" edge="1">
          <mxGeometry width="50" height="50" relative="1" as="geometry">
            <mxPoint x="400" y="340" as="sourcePoint" />
            <mxPoint x="450" y="290" as="targetPoint" />
          </mxGeometry>
        </mxCell>
        <mxCell id="STe9ljsXlWDjaHvHGVK4-50" value="" style="endArrow=none;html=1;rounded=0;" parent="1" source="STe9ljsXlWDjaHvHGVK4-21" target="STe9ljsXlWDjaHvHGVK4-48" edge="1">
          <mxGeometry width="50" height="50" relative="1" as="geometry">
            <mxPoint x="400" y="240" as="sourcePoint" />
            <mxPoint x="450" y="190" as="targetPoint" />
          </mxGeometry>
        </mxCell>
        <mxCell id="STe9ljsXlWDjaHvHGVK4-51" value="" style="endArrow=none;html=1;rounded=0;" parent="1" source="STe9ljsXlWDjaHvHGVK4-48" target="STe9ljsXlWDjaHvHGVK4-22" edge="1">
          <mxGeometry width="50" height="50" relative="1" as="geometry">
            <mxPoint x="400" y="240" as="sourcePoint" />
            <mxPoint x="450" y="190" as="targetPoint" />
          </mxGeometry>
        </mxCell>
        <mxCell id="STe9ljsXlWDjaHvHGVK4-53" value="" style="endArrow=none;html=1;rounded=0;" parent="1" source="STe9ljsXlWDjaHvHGVK4-52" target="STe9ljsXlWDjaHvHGVK4-21" edge="1">
          <mxGeometry width="50" height="50" relative="1" as="geometry">
            <mxPoint x="400" y="440" as="sourcePoint" />
            <mxPoint x="450" y="390" as="targetPoint" />
          </mxGeometry>
        </mxCell>
        <mxCell id="STe9ljsXlWDjaHvHGVK4-55" value="" style="endArrow=none;html=1;rounded=0;" parent="1" source="STe9ljsXlWDjaHvHGVK4-54" target="STe9ljsXlWDjaHvHGVK4-21" edge="1">
          <mxGeometry width="50" height="50" relative="1" as="geometry">
            <mxPoint x="400" y="340" as="sourcePoint" />
            <mxPoint x="450" y="290" as="targetPoint" />
          </mxGeometry>
        </mxCell>
        <mxCell id="STe9ljsXlWDjaHvHGVK4-56" value="Kullanıcı" style="shape=umlActor;verticalLabelPosition=bottom;verticalAlign=top;html=1;outlineConnect=0;" parent="1" vertex="1">
          <mxGeometry x="480" y="580" width="30" height="60" as="geometry" />
        </mxCell>
        <mxCell id="STe9ljsXlWDjaHvHGVK4-57" value="" style="endArrow=none;html=1;rounded=0;" parent="1" source="STe9ljsXlWDjaHvHGVK4-58" target="STe9ljsXlWDjaHvHGVK4-56" edge="1">
          <mxGeometry width="50" height="50" relative="1" as="geometry">
            <mxPoint x="400" y="450" as="sourcePoint" />
            <mxPoint x="450" y="400" as="targetPoint" />
          </mxGeometry>
        </mxCell>
        <mxCell id="STe9ljsXlWDjaHvHGVK4-59" value="" style="endArrow=none;html=1;rounded=0;" parent="1" source="STe9ljsXlWDjaHvHGVK4-58" target="STe9ljsXlWDjaHvHGVK4-21" edge="1">
          <mxGeometry width="50" height="50" relative="1" as="geometry">
            <mxPoint x="400" y="450" as="sourcePoint" />
            <mxPoint x="450" y="400" as="targetPoint" />
          </mxGeometry>
        </mxCell>
        <mxCell id="STe9ljsXlWDjaHvHGVK4-61" value="" style="endArrow=none;html=1;rounded=0;" parent="1" source="STe9ljsXlWDjaHvHGVK4-60" target="STe9ljsXlWDjaHvHGVK4-22" edge="1">
          <mxGeometry width="50" height="50" relative="1" as="geometry">
            <mxPoint x="400" y="330" as="sourcePoint" />
            <mxPoint x="450" y="280" as="targetPoint" />
          </mxGeometry>
        </mxCell>
        <mxCell id="STe9ljsXlWDjaHvHGVK4-63" value="" style="endArrow=none;html=1;rounded=0;" parent="1" source="STe9ljsXlWDjaHvHGVK4-62" target="STe9ljsXlWDjaHvHGVK4-22" edge="1">
          <mxGeometry width="50" height="50" relative="1" as="geometry">
            <mxPoint x="390" y="330" as="sourcePoint" />
            <mxPoint x="440" y="280" as="targetPoint" />
          </mxGeometry>
        </mxCell>
        <mxCell id="STe9ljsXlWDjaHvHGVK4-65" value="" style="endArrow=none;html=1;rounded=0;" parent="1" source="STe9ljsXlWDjaHvHGVK4-64" target="STe9ljsXlWDjaHvHGVK4-22" edge="1">
          <mxGeometry width="50" height="50" relative="1" as="geometry">
            <mxPoint x="390" y="330" as="sourcePoint" />
            <mxPoint x="440" y="280" as="targetPoint" />
          </mxGeometry>
        </mxCell>
        <mxCell id="STe9ljsXlWDjaHvHGVK4-67" value="" style="endArrow=none;html=1;rounded=0;" parent="1" source="STe9ljsXlWDjaHvHGVK4-66" target="STe9ljsXlWDjaHvHGVK4-22" edge="1">
          <mxGeometry width="50" height="50" relative="1" as="geometry">
            <mxPoint x="390" y="330" as="sourcePoint" />
            <mxPoint x="440" y="280" as="targetPoint" />
          </mxGeometry>
        </mxCell>
        <mxCell id="STe9ljsXlWDjaHvHGVK4-69" value="" style="endArrow=none;html=1;rounded=0;" parent="1" source="STe9ljsXlWDjaHvHGVK4-68" target="STe9ljsXlWDjaHvHGVK4-22" edge="1">
          <mxGeometry width="50" height="50" relative="1" as="geometry">
            <mxPoint x="390" y="330" as="sourcePoint" />
            <mxPoint x="440" y="280" as="targetPoint" />
          </mxGeometry>
        </mxCell>
      </root>
    </mxGraphModel>
  </diagram>
</mxfile>
